<svg width="36" height="36" viewBox="0 0 36 36" fill="none" xmlns="http://www.w3.org/2000/svg">
<path d="M18.0001 0.720703C8.45649 0.720703 0.720093 8.4571 0.720093 18.0007C0.720093 27.5443 8.45649 35.2807 18.0001 35.2807C27.5437 35.2807 35.2801 27.5443 35.2801 18.0007C35.2801 8.4571 27.5437 0.720703 18.0001 0.720703ZM25.0291 14.8759C25.0363 15.0235 25.0381 15.1711 25.0381 15.3151C25.0381 19.8151 21.6163 25.0009 15.3559 25.0009C13.506 25.004 11.6946 24.4727 10.1395 23.4709C10.4041 23.5033 10.6759 23.5159 10.9513 23.5159C12.5461 23.5159 14.0131 22.9741 15.1777 22.0597C14.468 22.0458 13.7803 21.8108 13.2105 21.3874C12.6407 20.9641 12.2171 20.3736 11.9989 19.6981C12.5086 19.795 13.0336 19.7747 13.5343 19.6387C12.764 19.4829 12.0712 19.0655 11.5736 18.4573C11.0759 17.8491 10.8039 17.0874 10.8037 16.3015V16.2601C11.2627 16.5139 11.7883 16.6687 12.3463 16.6867C11.6241 16.206 11.1129 15.4675 10.9172 14.6223C10.7214 13.7772 10.856 12.8892 11.2933 12.1399C12.1482 13.1911 13.2144 14.051 14.4227 14.6641C15.6311 15.2771 16.9547 15.6295 18.3079 15.6985C18.1359 14.9683 18.2099 14.2016 18.5185 13.5178C18.8271 12.834 19.353 12.2713 20.0144 11.9172C20.6758 11.5631 21.4357 11.4374 22.1759 11.5597C22.9161 11.682 23.5952 12.0454 24.1075 12.5935C24.8692 12.4428 25.5997 12.1634 26.2675 11.7673C26.0136 12.5559 25.4821 13.2256 24.7717 13.6519C25.4464 13.5706 26.1053 13.3892 26.7265 13.1137C26.2702 13.7975 25.6953 14.3943 25.0291 14.8759Z" fill="#B3B1BE"/>
</svg>
